<?xml version="1.0" standalone="no"?>
<!DOCTYPE svg PUBLIC "-//W3C//DTD SVG 20010904//EN"
 "http://www.w3.org/TR/2001/REC-SVG-20010904/DTD/svg10.dtd">
<svg version="1.0" xmlns="http://www.w3.org/2000/svg"
 width="700.000000pt" height="700.000000pt" viewBox="0 0 700.000000 700.000000"
 preserveAspectRatio="xMidYMid meet">
<metadata>
Created by potrace 1.11, written by Peter Selinger 2001-2013
</metadata>
<g transform="translate(0.000000,700.000000) scale(0.100000,-0.100000)"
fill="#000000" stroke="none">
<path d="M103 6990 c-44 -14 -91 -64 -99 -107 -18 -95 7 -207 132 -607 271
-864 375 -1395 414 -2111 36 -668 -15 -1160 -240 -2325 -132 -682 -154 -838
-148 -1049 3 -130 5 -142 33 -196 40 -77 77 -98 163 -92 125 9 268 102 472
307 138 139 293 324 445 532 55 75 102 137 105 137 3 0 38 -55 78 -122 312
-523 736 -938 1177 -1153 650 -316 1384 -264 1994 141 345 229 679 591 932
1010 39 66 73 121 75 123 1 2 54 -65 116 -150 314 -422 594 -703 788 -793 53
-25 78 -30 138 -30 72 0 74 1 107 37 89 97 75 281 -62 818 -188 735 -226 888
-267 1090 -89 432 -124 721 -133 1090 -15 679 87 1379 307 2105 29 94 95 292
147 440 190 540 223 651 223 758 0 58 -23 106 -65 133 -43 28 -160 31 -242 6
-114 -35 -186 -85 -328 -227 -147 -147 -248 -283 -393 -524 -121 -204 -339
-636 -403 -799 -8 -21 -17 -13 -121 110 -213 252 -597 627 -868 849 -387 316
-750 538 -972 595 -81 21 -169 14 -268 -22 -455 -163 -1228 -786 -1778 -1431
-52 -62 -98 -113 -101 -113 -4 0 -20 30 -35 68 -16 37 -71 153 -121 258 -327
680 -656 1108 -940 1223 -67 27 -206 38 -262 21z m239 -367 c134 -73 299 -272
491 -593 83 -139 290 -553 371 -741 l59 -137 -46 -63 c-132 -187 -275 -452
-356 -659 -101 -258 -135 -470 -120 -734 38 -633 186 -1243 438 -1805 l51
-114 -52 -71 c-198 -275 -453 -582 -590 -712 -244 -229 -341 -206 -308 73 12
104 48 291 155 808 187 909 254 1539 226 2135 -33 695 -142 1234 -401 1980
-45 129 -95 276 -111 325 -62 189 -70 283 -29 320 44 40 136 35 222 -12z
m6555 11 c18 -24 16 -105 -3 -172 -9 -32 -76 -206 -150 -389 -147 -367 -221
-574 -294 -825 -87 -299 -159 -666 -191 -982 l-12 -119 -24 89 c-60 225 -191
496 -380 787 -46 70 -83 130 -83 133 0 11 88 211 163 369 153 324 320 617 458
805 81 111 230 258 296 293 89 47 190 52 220 11z m-3265 2 c411 -154 1185
-800 1698 -1416 l100 -120 -21 -53 c-12 -28 -55 -144 -96 -257 -67 -181 -75
-211 -71 -258 7 -84 66 -147 139 -147 63 0 95 43 152 200 25 72 57 157 71 190
l24 59 54 -84 c218 -338 338 -662 338 -909 0 -100 -23 -355 -46 -511 -40 -273
-113 -583 -195 -833 -48 -145 -153 -415 -167 -429 -4 -4 -43 48 -85 116 -43
68 -87 132 -97 141 -10 9 -36 19 -57 21 -98 12 -182 -121 -141 -225 9 -21 63
-114 122 -206 l107 -168 -67 -116 c-181 -316 -359 -546 -585 -758 -282 -263
-606 -434 -954 -503 -139 -28 -406 -38 -555 -21 -660 75 -1223 504 -1664 1265
l-74 129 39 61 c157 243 182 288 187 336 2 26 -1 63 -7 82 -17 52 -71 99 -120
105 -38 5 -44 3 -83 -38 -24 -25 -69 -87 -102 -139 l-58 -94 -20 38 c-71 138
-187 484 -253 751 -108 437 -167 982 -126 1170 48 228 161 484 323 732 l54 83
73 -195 c62 -163 80 -200 108 -225 83 -74 204 4 205 132 0 42 -16 97 -82 273
-45 121 -87 234 -92 252 -11 31 -8 36 68 130 195 240 525 579 781 802 363 316
731 568 936 641 75 27 163 25 239 -4z m2643 -3601 c50 -413 135 -806 323
-1495 113 -415 134 -508 135 -601 1 -80 -11 -99 -63 -99 -122 0 -452 343 -818
851 l-63 87 62 138 c182 410 310 855 381 1324 l13 85 7 -80 c4 -44 15 -138 23
-210z"/>
<path d="M4680 4483 c-58 -5 -80 -26 -80 -73 0 -29 14 -57 74 -141 l75 -104
-23 -25 c-13 -14 -160 -178 -327 -365 -189 -212 -309 -339 -319 -337 -8 2 -35
5 -60 8 -63 8 -125 -27 -165 -91 -27 -43 -30 -57 -31 -132 l-1 -83 -305 -317
c-167 -175 -329 -345 -360 -378 -44 -47 -58 -57 -69 -48 -49 41 -157 18 -208
-44 l-30 -36 -320 98 -319 97 -12 45 c-58 205 -302 203 -359 -3 -15 -53 -14
-81 4 -142 44 -148 196 -194 299 -90 l40 40 315 -95 c181 -54 318 -100 322
-108 4 -8 12 -33 19 -57 15 -57 75 -117 132 -132 60 -17 112 1 164 54 50 52
69 113 61 197 l-5 60 360 375 c314 326 363 374 382 367 11 -4 46 -8 78 -8 48
0 62 5 94 31 60 48 79 95 80 195 l0 86 320 357 c175 196 322 356 326 356 3 0
32 -36 62 -80 80 -113 111 -129 155 -76 15 18 70 421 71 512 0 94 -1 94 -216
92 -98 -1 -199 -3 -224 -5z"/>
</g>
</svg>
