<?xml version="1.0" encoding="UTF-8" standalone="no"?>
<svg
   xmlns:dc="http://purl.org/dc/elements/1.1/"
   xmlns:cc="http://creativecommons.org/ns#"
   xmlns:rdf="http://www.w3.org/1999/02/22-rdf-syntax-ns#"
   xmlns:svg="http://www.w3.org/2000/svg"
   xmlns="http://www.w3.org/2000/svg"
   xmlns:xlink="http://www.w3.org/1999/xlink"
   xmlns:sodipodi="http://sodipodi.sourceforge.net/DTD/sodipodi-0.dtd"
   xmlns:inkscape="http://www.inkscape.org/namespaces/inkscape"
   viewBox="0 0 60 60"
   version="1.1"
   id="svg28"
   sodipodi:docname="CF.svg"
   width="60"
   height="60"
   inkscape:version="0.92.4 (5da689c313, 2019-01-14)">
  <metadata
     id="metadata32">
    <rdf:RDF>
      <cc:Work
         rdf:about="">
        <dc:format>image/svg+xml</dc:format>
        <dc:type
           rdf:resource="http://purl.org/dc/dcmitype/StillImage" />
        <dc:title>CF</dc:title>
      </cc:Work>
    </rdf:RDF>
  </metadata>
  <sodipodi:namedview
     pagecolor="#ffffff"
     bordercolor="#666666"
     borderopacity="1"
     objecttolerance="10"
     gridtolerance="10"
     guidetolerance="10"
     inkscape:pageopacity="0"
     inkscape:pageshadow="2"
     inkscape:window-width="1920"
     inkscape:window-height="1017"
     id="namedview30"
     showgrid="false"
     inkscape:zoom="10.429825"
     inkscape:cx="26.682224"
     inkscape:cy="29.847737"
     inkscape:window-x="-8"
     inkscape:window-y="-8"
     inkscape:window-maximized="1"
     inkscape:current-layer="Masker_N95" />
  <defs
     id="defs9">
    <style
       id="style2">.cls-1{fill:url(#linear-gradient);}.cls-2{fill:#c7cdd8;}.cls-3{fill:#231f20;}</style>
    <linearGradient
       id="linear-gradient"
       x1="32"
       y1="52"
       x2="32"
       y2="12"
       gradientUnits="userSpaceOnUse">
      <stop
         offset="0"
         stop-color="#d4d8e1"
         id="stop4" />
      <stop
         offset="1"
         stop-color="#f3f4f5"
         id="stop6" />
    </linearGradient>
    <linearGradient
       id="linear-gradient-63"
       x1="24"
       y1="63"
       x2="24"
       y2="43"
       gradientUnits="userSpaceOnUse">
      <stop
         offset="0"
         stop-color="#e9a254"
         id="stop4-4" />
      <stop
         offset="1"
         stop-color="#f4bb79"
         id="stop6-6" />
    </linearGradient>
    <linearGradient
       id="linear-gradient-2"
       x1="40"
       x2="40"
       y2="29"
       xlink:href="#linear-gradient-63" />
    <linearGradient
       id="linear-gradient-3"
       x1="56"
       x2="56"
       y2="14"
       xlink:href="#linear-gradient-63" />
    <linearGradient
       id="linear-gradient-4"
       x1="8"
       x2="8"
       y2="39"
       xlink:href="#linear-gradient-63" />
    <linearGradient
       id="linear-gradient-5"
       x1="8"
       y1="29"
       x2="8"
       y2="25"
       gradientUnits="userSpaceOnUse">
      <stop
         offset="0"
         stop-color="#da5466"
         id="stop12" />
      <stop
         offset="1"
         stop-color="#f4929c"
         id="stop14" />
    </linearGradient>
    <linearGradient
       id="linear-gradient-6"
       x1="24"
       y1="33"
       x2="24"
       y2="29"
       xlink:href="#linear-gradient-5" />
    <linearGradient
       id="linear-gradient-7"
       x1="40"
       y1="19"
       x2="40"
       y2="15"
       xlink:href="#linear-gradient-5" />
    <linearGradient
       id="linear-gradient-8"
       x1="53.77"
       y1="7.54"
       x2="53.77"
       y2="1"
       xlink:href="#linear-gradient-5" />
    <linearGradient
       inkscape:collect="always"
       xlink:href="#linear-gradient"
       id="linearGradient917"
       gradientUnits="userSpaceOnUse"
       x1="32"
       y1="52"
       x2="32"
       y2="12"
       gradientTransform="matrix(1.1271614,0,0,1.3052917,3.7042944,-16.730125)" />
  </defs>
  <title
     id="title11">CF</title>
  <g
     id="Masker_N95"
     data-name="Masker N95"
     transform="translate(-9.7337698,3.745763)">
    <path
       class="cls-1"
       d="m 62.316683,22.428625 c 0,9.137043 -6.762963,28.716418 -22.543228,28.716418 -15.780259,0 -22.543224,-19.579375 -22.543224,-28.716418 0,-9.137041 18.034579,-23.4952496 22.543224,-23.4952496 4.508651,0 22.543228,14.3582086 22.543228,23.4952496 z"
       id="path13"
       style="fill:url(#linearGradient917);stroke-width:1.21296108"
       inkscape:connector-curvature="0" />
    <path
       class="cls-2"
       d="m 62.224929,26.232528 c 0,9.137043 -6.762968,28.716417 -22.543228,28.716417 -15.780258,0 -22.543226,-19.579374 -22.543226,-28.716417 a 5.5005474,6.3698235 0 0 1 0.146531,-1.461926 c 0.98063,9.776635 7.912672,26.262469 22.396695,26.262469 14.484024,0 21.416066,-16.485834 22.396696,-26.262469 a 5.5005474,6.3698235 0 0 1 0.146532,1.461926 z"
       id="path15"
       inkscape:connector-curvature="0"
       style="fill:#c7cdd8;stroke-width:1.21296108" />
    <path
       class="cls-3"
       d="m 68.11742,-3.745763 c -4.030411,0 -8.140076,7.6714289 -10.732674,13.6571486 C 51.407053,2.4828096 42.836762,-3.745763 39.813951,-3.745763 c -3.02281,0 -11.593102,6.2285726 -17.570796,13.6571486 C 19.650558,3.9256659 15.540894,-3.745763 11.510479,-3.745763 c -5.3323737,0 3.037772,8.3457653 3.037772,27.574335 0,13.185714 -6.309653,28.139953 -1.905633,28.139953 2.411456,0 6.170156,-4.571436 8.932576,-8.457139 3.962486,7.028567 10.042072,12.742851 18.238757,12.742851 8.196686,0 14.276271,-5.714284 18.238757,-12.742851 2.762419,3.885703 6.52112,8.457139 8.932575,8.457139 4.40402,0 -3.104685,-13.558307 -3.104685,-26.744022 0,-19.2285733 9.569199,-28.970266 4.236822,-28.970266 z M 12.642618,49.111378 c -2.264278,0 2.799567,-12.040527 2.799567,-25.083385 0,-16.5857108 -7.5771928,-24.91661339 -3.931706,-24.91661339 2.717133,0 6.396585,6.62857319 9.057112,12.97143139 -2.705813,3.799992 -4.528556,7.785714 -4.528556,11.314277 0.205039,6.233484 1.670443,12.297142 4.256842,17.61429 -3.124703,4.385719 -6.317335,8.1 -7.653259,8.1 z m 27.171333,4.285711 c -7.823079,0 -13.257346,-5.528567 -16.71037,-12.099998 0.803818,-1.214277 1.437817,-2.228567 1.754815,-2.742854 0.796447,-1.482154 -0.853846,-3.090086 -1.788779,-1.742859 -0.384926,0.628572 -0.792497,1.257141 -1.211389,1.900008 -2.108276,-4.688815 -3.325186,-9.931163 -3.554915,-15.314298 0,-2.571429 1.358567,-5.585705 3.396416,-8.571429 0.40757,1.042859 0.769855,2.057152 1.132139,2.985724 0.596023,1.753065 2.679159,0.624496 2.083135,-1.128569 -0.181142,-0.514296 -0.724568,-2.071437 -1.528386,-4.100012 5.490873,-7.0571367 13.913985,-13.47142239 16.427334,-13.47142239 2.513349,0 10.936461,6.41428569 16.472621,13.44286439 -0.803819,2.02857 -1.347246,3.585706 -1.528388,4.099992 -0.596839,1.752697 1.486296,2.881261 2.083136,1.128575 0.316998,-0.928576 0.679283,-1.942861 1.132138,-2.985714 2.037851,3.014286 3.396418,6.028562 3.396418,8.57142 -0.229729,5.383129 -1.446641,10.625484 -3.554917,15.314287 -0.418892,-0.642854 -0.826461,-1.271426 -1.211389,-1.89999 -0.901089,-1.6769 -2.846551,0.218618 -1.788779,1.742845 0.316998,0.514297 0.950997,1.528577 1.754816,2.742863 -3.49831,6.6 -8.932576,12.128567 -16.755656,12.128567 z m 27.171332,-4.285711 c -1.335923,0 -4.528554,-3.714281 -7.653258,-8.1 2.5864,-5.317148 4.051803,-11.380806 4.256843,-17.61429 0,-3.528563 -1.856709,-7.514285 -4.528557,-11.314277 2.660527,-6.3428582 6.339979,-12.97143139 9.057109,-12.97143139 3.645487,0 -4.95946,8.72972749 -4.95946,25.31544739 0,13.042857 6.091603,24.684551 3.827323,24.684551 z"
       id="path19"
       inkscape:connector-curvature="0"
       style="fill:#231f20;stroke-width:1.27174747"
       sodipodi:nodetypes="scscssscscsssssscccsscccccccccscccccccccsscccsss" />
    <g
       transform="matrix(0.53212851,0,0,0.63443957,22.79047,17.780734)"
       id="hockey_stick_growth"
       data-name="hockey stick growth">
      <circle
         class="cls-6"
         cx="8"
         cy="27"
         r="2"
         id="circle40" />
      <circle
         class="cls-7"
         cx="24"
         cy="31"
         r="2"
         id="circle42" />
      <circle
         class="cls-8"
         cx="40"
         cy="17"
         r="2"
         id="circle44" />
      <polygon
         class="cls-9"
         points="57,1 56.01,7.54 50.53,1.1 "
         id="polygon46" />
      <path
         inkscape:connector-curvature="0"
         d="M 10.5,28.66 21,31.29 A 3,3 0 1 0 26.75,29.9 L 38.54,19.6 a 3,3 0 0 0 4.2,-3.8 L 53.3,5.9 c 2.05,2.41 2.09,2.64 2.7,2.64 a 1,1 0 0 0 1,-0.85 c 1.06,-7 1.17,-6.87 0.75,-7.35 C 57.33,-0.14 57.55,0 50.52,0.1 a 1,1 0 0 0 -0.75,1.65 l 2.23,2.62 -10.63,10 a 3,3 0 0 0 -4.15,3.75 L 25.46,28.4 a 3,3 0 0 0 -4,1 L 11,26.72 a 3,3 0 1 0 -0.47,1.94 z M 55.83,2 55.35,5.2 52.67,2.07 Z M 41,17 a 1,1 0 0 1 -2,0 1,1 0 0 1 2,0 z M 24,30 a 1,1 0 0 1 0,2 1,1 0 0 1 0,-2 z M 8,26 a 1,1 0 0 1 0,2 1,1 0 0 1 0,-2 z"
         id="path50" />
    </g>
  </g>
</svg>
